<mxfile host="app.diagrams.net" agent="Mozilla/5.0 (Windows NT 10.0; Win64; x64) AppleWebKit/537.36 (KHTML, like Gecko) Chrome/134.0.0.0 Safari/537.36" version="26.1.1">
  <diagram name="PÃ¡gina-1" id="Cqr7dzjxiVYe6bI_KbVx">
    <mxGraphModel dx="1834" dy="1180" grid="0" gridSize="10" guides="1" tooltips="1" connect="1" arrows="1" fold="1" page="0" pageScale="1" pageWidth="827" pageHeight="1169" math="0" shadow="0">
      <root>
        <mxCell id="0" />
        <mxCell id="1" parent="0" />
        <mxCell id="s6dgGAL5ziLIxhIKajz9-5" value="User" style="swimlane;fontStyle=0;childLayout=stackLayout;horizontal=1;startSize=26;fillColor=#0050ef;horizontalStack=0;resizeParent=1;resizeParentMax=0;resizeLast=0;collapsible=1;marginBottom=0;whiteSpace=wrap;html=1;rounded=1;fontColor=#ffffff;strokeColor=#001DBC;" parent="1" vertex="1">
          <mxGeometry x="-176" y="-258" width="168" height="130" as="geometry">
            <mxRectangle x="-26" y="-60" width="60" height="26" as="alternateBounds" />
          </mxGeometry>
        </mxCell>
        <mxCell id="s6dgGAL5ziLIxhIKajz9-6" value="+ id: Long" style="text;strokeColor=none;fillColor=none;align=left;verticalAlign=top;spacingLeft=4;spacingRight=4;overflow=hidden;rotatable=0;points=[[0,0.5],[1,0.5]];portConstraint=eastwest;whiteSpace=wrap;html=1;rounded=1;" parent="s6dgGAL5ziLIxhIKajz9-5" vertex="1">
          <mxGeometry y="26" width="168" height="26" as="geometry" />
        </mxCell>
        <mxCell id="s6dgGAL5ziLIxhIKajz9-7" value="+ name: String" style="text;strokeColor=none;fillColor=none;align=left;verticalAlign=top;spacingLeft=4;spacingRight=4;overflow=hidden;rotatable=0;points=[[0,0.5],[1,0.5]];portConstraint=eastwest;whiteSpace=wrap;html=1;rounded=1;" parent="s6dgGAL5ziLIxhIKajz9-5" vertex="1">
          <mxGeometry y="52" width="168" height="26" as="geometry" />
        </mxCell>
        <mxCell id="s6dgGAL5ziLIxhIKajz9-8" value="+ email: String" style="text;strokeColor=none;fillColor=none;align=left;verticalAlign=top;spacingLeft=4;spacingRight=4;overflow=hidden;rotatable=0;points=[[0,0.5],[1,0.5]];portConstraint=eastwest;whiteSpace=wrap;html=1;rounded=1;" parent="s6dgGAL5ziLIxhIKajz9-5" vertex="1">
          <mxGeometry y="78" width="168" height="26" as="geometry" />
        </mxCell>
        <mxCell id="fWeYtY6uwXe9H0jsyh2D-9" value="+academicInfo:&amp;nbsp;&lt;span style=&quot;text-align: center;&quot;&gt;AcademicInfo&lt;/span&gt;" style="text;strokeColor=none;fillColor=none;align=left;verticalAlign=top;spacingLeft=4;spacingRight=4;overflow=hidden;rotatable=0;points=[[0,0.5],[1,0.5]];portConstraint=eastwest;whiteSpace=wrap;html=1;rounded=1;" vertex="1" parent="s6dgGAL5ziLIxhIKajz9-5">
          <mxGeometry y="104" width="168" height="26" as="geometry" />
        </mxCell>
        <mxCell id="fWeYtY6uwXe9H0jsyh2D-16" style="edgeStyle=orthogonalEdgeStyle;rounded=1;orthogonalLoop=1;jettySize=auto;html=1;strokeColor=#6F0000;curved=0;fillColor=#a20025;strokeWidth=2;" edge="1" parent="1" source="fWeYtY6uwXe9H0jsyh2D-5" target="fWeYtY6uwXe9H0jsyh2D-9">
          <mxGeometry relative="1" as="geometry" />
        </mxCell>
        <mxCell id="fWeYtY6uwXe9H0jsyh2D-5" value="AcademicInfo" style="swimlane;fontStyle=0;childLayout=stackLayout;horizontal=1;startSize=26;fillColor=#a20025;horizontalStack=0;resizeParent=1;resizeParentMax=0;resizeLast=0;collapsible=1;marginBottom=0;whiteSpace=wrap;html=1;rounded=1;fontColor=#ffffff;strokeColor=#6F0000;" vertex="1" parent="1">
          <mxGeometry x="94" y="-152" width="140" height="130" as="geometry">
            <mxRectangle x="388" y="-18" width="108" height="26" as="alternateBounds" />
          </mxGeometry>
        </mxCell>
        <mxCell id="fWeYtY6uwXe9H0jsyh2D-6" value="+ id: Long" style="text;strokeColor=none;fillColor=none;align=left;verticalAlign=top;spacingLeft=4;spacingRight=4;overflow=hidden;rotatable=0;points=[[0,0.5],[1,0.5]];portConstraint=eastwest;whiteSpace=wrap;html=1;rounded=1;" vertex="1" parent="fWeYtY6uwXe9H0jsyh2D-5">
          <mxGeometry y="26" width="140" height="26" as="geometry" />
        </mxCell>
        <mxCell id="fWeYtY6uwXe9H0jsyh2D-8" value="+ course: Course" style="text;strokeColor=none;fillColor=none;align=left;verticalAlign=top;spacingLeft=4;spacingRight=4;overflow=hidden;rotatable=0;points=[[0,0.5],[1,0.5]];portConstraint=eastwest;whiteSpace=wrap;html=1;rounded=1;" vertex="1" parent="fWeYtY6uwXe9H0jsyh2D-5">
          <mxGeometry y="52" width="140" height="26" as="geometry" />
        </mxCell>
        <mxCell id="fWeYtY6uwXe9H0jsyh2D-7" value="+ peiod: int" style="text;strokeColor=none;fillColor=none;align=left;verticalAlign=top;spacingLeft=4;spacingRight=4;overflow=hidden;rotatable=0;points=[[0,0.5],[1,0.5]];portConstraint=eastwest;whiteSpace=wrap;html=1;rounded=1;" vertex="1" parent="fWeYtY6uwXe9H0jsyh2D-5">
          <mxGeometry y="78" width="140" height="26" as="geometry" />
        </mxCell>
        <mxCell id="fWeYtY6uwXe9H0jsyh2D-15" value="+ tuitionFee: double" style="text;strokeColor=none;fillColor=none;align=left;verticalAlign=top;spacingLeft=4;spacingRight=4;overflow=hidden;rotatable=0;points=[[0,0.5],[1,0.5]];portConstraint=eastwest;whiteSpace=wrap;html=1;rounded=1;" vertex="1" parent="fWeYtY6uwXe9H0jsyh2D-5">
          <mxGeometry y="104" width="140" height="26" as="geometry" />
        </mxCell>
        <mxCell id="fWeYtY6uwXe9H0jsyh2D-17" style="edgeStyle=orthogonalEdgeStyle;rounded=1;orthogonalLoop=1;jettySize=auto;html=1;entryX=1;entryY=0.5;entryDx=0;entryDy=0;fillColor=#60a917;strokeColor=#2D7600;strokeWidth=2;" edge="1" parent="1" source="fWeYtY6uwXe9H0jsyh2D-10" target="fWeYtY6uwXe9H0jsyh2D-8">
          <mxGeometry relative="1" as="geometry" />
        </mxCell>
        <mxCell id="fWeYtY6uwXe9H0jsyh2D-10" value="Course" style="swimlane;fontStyle=0;childLayout=stackLayout;horizontal=1;startSize=26;fillColor=#60a917;horizontalStack=0;resizeParent=1;resizeParentMax=0;resizeLast=0;collapsible=1;marginBottom=0;whiteSpace=wrap;html=1;rounded=1;fontColor=#ffffff;strokeColor=#2D7600;" vertex="1" parent="1">
          <mxGeometry x="281" y="-271" width="140" height="78" as="geometry">
            <mxRectangle x="468" y="-210" width="74" height="26" as="alternateBounds" />
          </mxGeometry>
        </mxCell>
        <mxCell id="fWeYtY6uwXe9H0jsyh2D-11" value="+ id: Long" style="text;strokeColor=none;fillColor=none;align=left;verticalAlign=top;spacingLeft=4;spacingRight=4;overflow=hidden;rotatable=0;points=[[0,0.5],[1,0.5]];portConstraint=eastwest;whiteSpace=wrap;html=1;rounded=1;" vertex="1" parent="fWeYtY6uwXe9H0jsyh2D-10">
          <mxGeometry y="26" width="140" height="26" as="geometry" />
        </mxCell>
        <mxCell id="fWeYtY6uwXe9H0jsyh2D-12" value="+ name: String" style="text;strokeColor=none;fillColor=none;align=left;verticalAlign=top;spacingLeft=4;spacingRight=4;overflow=hidden;rotatable=0;points=[[0,0.5],[1,0.5]];portConstraint=eastwest;whiteSpace=wrap;html=1;rounded=1;" vertex="1" parent="fWeYtY6uwXe9H0jsyh2D-10">
          <mxGeometry y="52" width="140" height="26" as="geometry" />
        </mxCell>
        <mxCell id="fWeYtY6uwXe9H0jsyh2D-20" value="University" style="swimlane;fontStyle=0;childLayout=stackLayout;horizontal=1;startSize=26;fillColor=#fa6800;horizontalStack=0;resizeParent=1;resizeParentMax=0;resizeLast=0;collapsible=1;marginBottom=0;whiteSpace=wrap;html=1;rounded=1;strokeColor=#C73500;fontColor=#000000;" vertex="1" parent="1">
          <mxGeometry x="345" y="91" width="165" height="156" as="geometry">
            <mxRectangle x="388" y="-18" width="108" height="26" as="alternateBounds" />
          </mxGeometry>
        </mxCell>
        <mxCell id="fWeYtY6uwXe9H0jsyh2D-21" value="+ id: Long" style="text;strokeColor=none;fillColor=none;align=left;verticalAlign=top;spacingLeft=4;spacingRight=4;overflow=hidden;rotatable=0;points=[[0,0.5],[1,0.5]];portConstraint=eastwest;whiteSpace=wrap;html=1;rounded=1;" vertex="1" parent="fWeYtY6uwXe9H0jsyh2D-20">
          <mxGeometry y="26" width="165" height="26" as="geometry" />
        </mxCell>
        <mxCell id="fWeYtY6uwXe9H0jsyh2D-22" value="+ courses: List&amp;lt;Course&amp;gt;" style="text;strokeColor=none;fillColor=none;align=left;verticalAlign=top;spacingLeft=4;spacingRight=4;overflow=hidden;rotatable=0;points=[[0,0.5],[1,0.5]];portConstraint=eastwest;whiteSpace=wrap;html=1;rounded=1;" vertex="1" parent="fWeYtY6uwXe9H0jsyh2D-20">
          <mxGeometry y="52" width="165" height="26" as="geometry" />
        </mxCell>
        <mxCell id="fWeYtY6uwXe9H0jsyh2D-25" value="+ avarageRank: double" style="text;strokeColor=none;fillColor=none;align=left;verticalAlign=top;spacingLeft=4;spacingRight=4;overflow=hidden;rotatable=0;points=[[0,0.5],[1,0.5]];portConstraint=eastwest;whiteSpace=wrap;html=1;rounded=1;" vertex="1" parent="fWeYtY6uwXe9H0jsyh2D-20">
          <mxGeometry y="78" width="165" height="26" as="geometry" />
        </mxCell>
        <mxCell id="fWeYtY6uwXe9H0jsyh2D-23" value="+ latitude: double" style="text;strokeColor=none;fillColor=none;align=left;verticalAlign=top;spacingLeft=4;spacingRight=4;overflow=hidden;rotatable=0;points=[[0,0.5],[1,0.5]];portConstraint=eastwest;whiteSpace=wrap;html=1;rounded=1;" vertex="1" parent="fWeYtY6uwXe9H0jsyh2D-20">
          <mxGeometry y="104" width="165" height="26" as="geometry" />
        </mxCell>
        <mxCell id="fWeYtY6uwXe9H0jsyh2D-26" value="+ longitude: double" style="text;strokeColor=none;fillColor=none;align=left;verticalAlign=top;spacingLeft=4;spacingRight=4;overflow=hidden;rotatable=0;points=[[0,0.5],[1,0.5]];portConstraint=eastwest;whiteSpace=wrap;html=1;rounded=1;" vertex="1" parent="fWeYtY6uwXe9H0jsyh2D-20">
          <mxGeometry y="130" width="165" height="26" as="geometry" />
        </mxCell>
      </root>
    </mxGraphModel>
  </diagram>
</mxfile>
